<svg width="346" height="70" viewBox="0 0 346 70" fill="none" xmlns="http://www.w3.org/2000/svg">
<g clip-path="url(#clip0_103_133)">
<path d="M0 35.1128C0 28.0214 1.78178 22.4793 5.34535 18.4899C8.90891 14.5006 13.953 12.5041 20.474 12.5041C26.9949 12.5041 31.9178 14.3971 35.2389 18.1868C38.56 21.9764 40.2205 27.3559 40.2205 34.3252C40.2205 47.5762 34.5041 54.7267 23.0676 55.7804V56.2056C25.3638 56.4496 27.0647 57.0781 28.1705 58.0912C29.2763 59.1042 30.114 60.45 30.676 62.1323C31.2381 63.8145 31.7414 64.9569 32.186 65.567C32.6268 66.1733 33.2918 66.4802 34.1772 66.4802C35.7054 66.4802 36.6129 64.8608 36.8957 61.6183L38.2257 61.7403C38.1448 64.4135 37.3182 66.4617 35.7495 67.8778C34.1808 69.2975 31.9949 70.0037 29.1955 70.0037C26.3961 70.0037 24.2322 69.3049 22.7039 67.9074C21.172 66.5098 20.0074 64.4504 19.2028 61.7366C18.6775 60.0729 18.2366 59.0007 17.8729 58.5163C17.5092 58.032 17.0463 57.788 16.4842 57.788C15.3564 57.788 13.8648 58.6162 12.0169 60.2799L11.172 59.3076C12.7811 57.6882 14.6143 56.6936 16.6679 56.3313V55.9652C11.1903 55.3996 7.04263 53.3106 4.22484 49.7058C1.41073 46.0936 0 41.2317 0 35.1128ZM27.7811 36.9355V32.436C27.7811 25.0193 27.4174 20.3423 26.6937 18.3975C25.8891 16.1681 24.7392 14.7927 23.2513 14.264C22.4064 13.9386 21.3777 13.7796 20.1727 13.7796C18.9677 13.7796 17.928 13.9423 17.061 14.264C16.194 14.5893 15.4813 15.155 14.9155 15.9647C14.3498 16.7744 13.8979 17.6248 13.5562 18.5158C13.2146 19.4069 12.9427 20.6639 12.7407 22.2833C12.4982 24.6348 12.377 28.0991 12.377 32.6763V37.0538C12.377 41.997 12.568 45.5131 12.9501 47.5984C13.3321 49.6873 13.8061 51.1736 14.3681 52.0646C15.6172 54.0501 17.5496 55.0409 20.1654 55.0409C23.3469 55.0409 25.4078 53.6951 26.3557 50.9998C27.2998 48.3045 27.7738 43.6164 27.7738 36.9281L27.7811 36.9355Z" fill="#232E52"/>
<path d="M78.0308 55.7175H64.2615L63.5966 51.2808C62.9537 52.9002 61.9948 54.1462 60.7274 55.0187C59.4599 55.8913 57.5753 56.3239 55.0808 56.3239C48.839 56.3239 45.72 52.9409 45.72 46.1749V27.8809H42.3364V26.7866H56.9507V47.6353C56.9507 50.0681 57.1197 51.669 57.465 52.4381C57.8067 53.2071 58.4937 53.5916 59.5187 53.5916C60.5437 53.5916 61.4621 52.9631 62.2667 51.706C63.0712 50.449 63.4753 48.7075 63.4753 46.4781V27.8809H60.698V26.7866H74.7098V54.6231H78.0308V55.7175Z" fill="#0B40FF"/>
<path d="M83.4352 52.2828C80.8379 49.5875 79.541 45.8385 79.541 41.0395C79.541 36.2404 80.9995 32.5617 83.9202 30.0069C86.8408 27.4521 90.555 26.1765 95.0627 26.1765C104.203 26.1765 108.59 30.7944 108.23 40.0338H91.1979V42.4037C91.1979 46.3746 91.7012 49.3731 92.7078 51.3991C93.7145 53.4252 95.4668 54.4383 97.9613 54.4383C102.631 54.4383 105.691 51.9278 107.142 46.8996L108.23 47.0808C107.465 49.9979 106.084 52.268 104.093 53.8874C102.102 55.5068 99.1112 56.3202 95.1252 56.3202C89.9305 56.3202 86.0363 54.9744 83.4389 52.2791L83.4352 52.2828ZM91.2567 38.8211H97.4764V35.8448C97.4764 32.5617 97.2854 30.3248 96.9033 29.1269C96.5212 27.9327 95.7571 27.3338 94.6072 27.3338C93.4573 27.3338 92.616 27.9734 92.0686 29.2489C91.5249 30.5245 91.253 32.7243 91.253 35.8448V38.8211H91.2567Z" fill="#0B40FF"/>
<path d="M111.187 56.3239V45.4429H111.911C112.958 48.9664 114.365 51.4398 116.139 52.8596C117.91 54.2793 120.125 54.9855 122.781 54.9855C126.889 54.9855 128.942 53.6693 128.942 51.0331C128.942 49.8981 128.439 49.0477 127.432 48.4783C125.864 47.5873 123.847 46.8996 121.393 46.4116C118.652 45.6832 116.36 44.7108 114.508 43.4944C112.293 42.034 111.187 39.7269 111.187 36.5658C111.187 33.4046 112.153 30.8831 114.086 28.9975C116.018 27.1119 118.593 26.1728 121.815 26.1728C123.788 26.1728 125.82 26.6387 127.914 27.5704C128.678 27.8957 129.262 28.0584 129.666 28.0584C130.07 28.0584 130.412 27.9179 130.695 27.6332C130.974 27.3485 131.319 26.8235 131.72 26.0545H132.385V35.3531H131.661C129.607 30.0845 126.426 27.4521 122.12 27.4521C120.228 27.4521 118.817 27.7848 117.892 28.454C116.966 29.1232 116.503 29.9625 116.503 30.9755C116.503 31.5819 116.643 32.0588 116.925 32.4027C117.208 32.7465 117.429 33.0016 117.59 33.1643C117.752 33.327 118.013 33.4971 118.377 33.6819C118.74 33.8631 119.042 34.0073 119.284 34.1071C119.526 34.2069 119.898 34.34 120.401 34.5027C120.904 34.6654 121.275 34.7652 121.518 34.8059C124.255 35.4973 126.227 36.0925 127.436 36.5991C128.645 37.1056 129.791 37.723 130.878 38.4514C133.094 39.9931 134.2 42.474 134.2 45.8976C134.2 49.3213 133.193 51.9168 131.18 53.6766C129.166 55.4402 126.407 56.3202 122.906 56.3202C120.408 56.3202 117.995 55.7323 115.658 54.5566C115.177 54.2312 114.791 54.0723 114.512 54.0723C113.626 54.0723 112.759 54.8228 111.914 56.3202H111.191L111.187 56.3239Z" fill="#0B40FF"/>
<path d="M138.424 47.0253V27.881H135.103V26.7866H138.424V18.9447L149.659 16.1496V26.7866H157.509V27.881H149.659V48.3637C149.659 50.2678 149.85 51.6654 150.232 52.5564C150.614 53.4474 151.407 53.8948 152.616 53.8948C153.825 53.8948 154.883 53.2885 155.786 52.0721C156.694 50.8557 157.285 49.1956 157.568 47.0882L158.597 47.2102C158.274 50.0053 157.388 52.2236 155.941 53.8652C154.49 55.5068 152.094 56.3276 148.755 56.3276C145.415 56.3276 142.855 55.6584 141.084 54.32C139.313 52.9816 138.428 50.5525 138.428 47.0253H138.424Z" fill="#0B40FF"/>
<path d="M182.693 52.4344C180.114 49.8426 178.829 46.1232 178.829 41.2798C178.829 36.4364 180.206 32.7096 182.965 30.0956C185.724 27.4816 189.6 26.1765 194.593 26.1765C199.585 26.1765 203.311 27.3818 205.765 29.7924C208.219 32.203 209.45 35.8818 209.45 40.825C209.45 51.1588 204.336 56.3239 194.108 56.3239C189.075 56.3239 185.269 55.0261 182.693 52.4344ZM197.851 43.7421V38.5771C197.851 34.6469 197.638 31.7815 197.216 29.9773C196.793 28.1767 195.816 27.2746 194.288 27.2746C193.402 27.2746 192.686 27.5297 192.142 28.0325C191.599 28.5391 191.206 29.3783 190.963 30.5541C190.599 32.3768 190.419 35.1534 190.419 38.8803V43.6201C190.419 48.0383 190.548 50.693 190.812 51.5803C191.073 52.4713 191.345 53.2034 191.628 53.7691C192.069 54.7414 192.936 55.2295 194.225 55.2295C195.794 55.2295 196.823 54.3163 197.304 52.4935C197.668 51.1958 197.848 48.2787 197.848 43.7421H197.851Z" fill="#0B40FF"/>
<path d="M211.261 26.7829H225.816V32.3731C226.459 30.5097 227.447 29.0086 228.777 27.8736C230.104 26.7385 232.117 26.1729 234.817 26.1729C241.059 26.1729 244.178 29.5558 244.178 36.3218V54.6158H247.561V55.7102H230.471V54.6158H232.947V34.8614C232.947 32.4286 232.785 30.861 232.462 30.1511C232.139 29.4412 231.555 29.0863 230.71 29.0863C229.42 29.0863 228.285 29.9367 227.297 31.6411C226.309 33.3418 225.816 35.4086 225.816 37.8414V54.6158H228.414V55.7102H211.261V54.6158H214.582V27.8773H211.261V26.7829Z" fill="#0B40FF"/>
<path d="M248.461 26.7829H263.017V32.3731C263.66 30.5097 264.648 29.0086 265.978 27.8736C267.304 26.7385 269.317 26.1729 272.018 26.1729C278.259 26.1729 281.378 29.5558 281.378 36.3218V54.6158H284.762V55.7102H267.672V54.6158H270.148V34.8614C270.148 32.4286 269.986 30.861 269.663 30.1511C269.34 29.4412 268.755 29.0863 267.91 29.0863C266.621 29.0863 265.486 29.9367 264.497 31.6411C263.509 33.3418 263.017 35.4086 263.017 37.8414V54.6158H265.614V55.7102H248.461V54.6158H251.783V27.8773H248.461V26.7829Z" fill="#232E52"/>
<path d="M289.74 52.2828C287.143 49.5875 285.846 45.8385 285.846 41.0395C285.846 36.2404 287.304 32.5617 290.225 30.0069C293.142 27.4521 296.856 26.1765 301.367 26.1765C310.508 26.1765 314.898 30.7944 314.534 40.0338H297.503V42.4037C297.503 46.3746 298.006 49.3731 299.013 51.3991C300.019 53.4252 301.772 54.4383 304.266 54.4383C308.935 54.4383 311.996 51.9278 313.447 46.8996L314.534 47.0808C313.77 49.9979 312.389 52.268 310.398 53.8874C308.406 55.5068 305.416 56.3202 301.43 56.3202C296.235 56.3202 292.341 54.9744 289.744 52.2791L289.74 52.2828ZM297.561 38.8211H303.781V35.8448C303.781 32.5617 303.59 30.3248 303.208 29.1269C302.826 27.9327 302.062 27.3338 300.912 27.3338C299.762 27.3338 298.921 27.9734 298.377 29.2489C297.833 30.5245 297.561 32.7243 297.561 35.8448V38.8211Z" fill="#232E52"/>
<path d="M336.878 28.4873C335.386 28.4873 334.078 29.4597 332.951 31.4044C331.823 33.3492 331.261 35.66 331.261 38.3331V54.6231H335.548V55.7175H316.705V54.6231H320.026V27.8772H316.705V26.7829H331.261V32.6171C331.782 30.5504 332.789 28.9605 334.28 27.8477C335.768 26.7348 337.462 26.1765 339.354 26.1765C341.246 26.1765 342.785 26.7126 343.972 27.7885C345.158 28.8607 345.754 30.3803 345.754 32.3472C345.754 34.3142 345.309 35.8226 344.424 36.8763C343.538 37.9301 342.179 38.4588 340.346 38.4588C338.513 38.4588 337.164 37.8524 336.301 36.636C335.434 35.4196 335.324 33.7374 335.97 31.593H338.145C339.152 29.5262 338.729 28.4947 336.878 28.4947V28.4873Z" fill="#232E52"/>
<path d="M157.657 3.44953C160.721 1.14984 165.1 0 170.787 0C176.474 0 180.864 1.09808 183.957 3.29425C187.047 5.49041 188.594 8.7329 188.594 13.018C188.594 15.8427 187.903 18.3384 186.529 20.5086C185.151 22.6789 183.241 24.8899 180.801 27.1341L169.034 37.6417V42.1893H167.087V25.7181C167.087 24.8307 167.374 24.0987 167.943 23.5219L172.774 18.5824C174.281 17.0665 175.32 15.6431 175.893 14.3084C176.463 12.9736 176.749 11.2359 176.749 9.09153C176.749 4.01891 174.413 1.4826 169.736 1.4826C167.502 1.4826 165.864 2.08525 164.828 3.28685C163.788 4.48846 163.27 5.6383 163.27 6.73639C163.27 7.83447 163.425 8.80315 163.737 9.63873H166.231C166.646 10.7368 166.856 12.0567 166.856 13.5985C166.856 15.1402 166.206 16.4749 164.909 17.5989C163.608 18.7229 161.896 19.2848 159.765 19.2848C157.635 19.2848 155.985 18.5935 154.817 17.207C153.649 15.8205 153.064 14.0828 153.064 11.9902C153.064 8.59241 154.596 5.74183 157.66 3.44214L157.657 3.44953ZM167.903 56.5457C165.956 56.5457 164.501 55.9837 163.538 54.8598C162.576 53.7358 162.098 52.3235 162.098 50.6264C162.098 48.9294 162.616 47.517 163.656 46.3931C164.696 45.2691 166.121 44.7071 167.943 44.7071C169.765 44.7071 171.217 45.1915 172.308 46.1564C173.399 47.1251 173.943 48.5486 173.943 50.4305C173.943 52.3124 173.421 53.8024 172.385 54.9004C171.345 55.9985 169.854 56.5457 167.903 56.5457Z" fill="#232E52"/>
</g>
<defs>
<clipPath id="clip0_103_133">
<rect width="345.758" height="70" fill="white"/>
</clipPath>
</defs>
</svg>
