<svg width="348" height="70" viewBox="0 0 348 70" fill="none" xmlns="http://www.w3.org/2000/svg">
<path d="M5.97852 36.2757C5.97852 29.428 7.71023 24.0763 11.1737 20.224C14.6371 16.3718 19.5395 14.4438 25.8772 14.4438C32.2149 14.4438 36.9995 16.2718 40.2272 19.9313C43.455 23.5907 45.0689 28.7854 45.0689 35.5152C45.0689 48.3108 39.5131 55.2156 28.398 56.2331V56.6437C30.6296 56.8793 32.2828 57.4863 33.3575 58.4645C34.4322 59.4427 35.2463 60.7423 35.7926 62.3667C36.3389 63.9912 36.8281 65.0944 37.2601 65.6834C37.6886 66.269 38.3348 66.5653 39.1953 66.5653C40.6807 66.5653 41.5626 65.0015 41.8376 61.8705L43.1301 61.9883C43.0515 64.5695 42.2482 66.5474 40.7235 67.9148C39.1989 69.2858 37.0744 69.9677 34.3537 69.9677C31.6329 69.9677 29.5299 69.2929 28.0445 67.9434C26.5556 66.5939 25.4237 64.6052 24.6418 61.9847C24.1312 60.3781 23.7027 59.3428 23.3492 58.8751C22.9958 58.4074 22.5459 58.1717 21.9996 58.1717C20.9034 58.1717 19.4538 58.9715 17.6578 60.5781L16.8366 59.6391C18.4005 58.0753 20.1822 57.115 22.1781 56.7651V56.4116C16.8544 55.8654 12.8233 53.8482 10.0846 50.3673C7.34961 46.8792 5.97852 42.1843 5.97852 36.2757ZM32.979 38.0358V33.6908C32.979 26.529 32.6255 22.0127 31.9221 20.1348C31.1402 17.9819 30.0226 16.6538 28.5765 16.1433C27.7553 15.8291 26.7556 15.6756 25.5844 15.6756C24.4133 15.6756 23.4028 15.8327 22.5602 16.1433C21.7175 16.4574 21.0248 17.0037 20.475 17.7856C19.9251 18.5674 19.4859 19.3886 19.1538 20.249C18.8218 21.1094 18.5576 22.3233 18.3612 23.887C18.1255 26.1577 18.0077 29.503 18.0077 33.9229V38.15C18.0077 42.9234 18.1934 46.3187 18.5647 48.3322C18.936 50.3494 19.3966 51.7846 19.9429 52.6451C21.1569 54.5623 23.035 55.5191 25.5773 55.5191C28.6694 55.5191 30.6724 54.2195 31.5936 51.6168C32.5113 49.0142 32.9719 44.4871 32.9719 38.0286L32.979 38.0358Z" fill="white"/>
<path d="M81.8174 56.1724H68.435L67.7888 51.8882C67.1639 53.452 66.232 54.6551 65.0002 55.4977C63.7683 56.3402 61.9366 56.758 59.5122 56.758C53.4458 56.758 50.4145 53.4912 50.4145 46.9577V29.2924H47.126V28.2356H61.3296V48.368C61.3296 50.7172 61.4939 52.2631 61.8295 53.0057C62.1616 53.7483 62.8293 54.1196 63.8254 54.1196C64.8216 54.1196 65.7143 53.5126 66.4962 52.2988C67.2782 51.0849 67.6709 49.4033 67.6709 47.2505V29.2924H64.9716V28.2356H78.5897V55.1157H81.8174V56.1724Z" fill="white"/>
<path d="M87.069 52.8557C84.5446 50.253 83.2842 46.6328 83.2842 41.9987C83.2842 37.3646 84.7017 33.8122 87.5403 31.3452C90.3789 28.8782 93.9887 27.6465 98.3698 27.6465C107.253 27.6465 111.517 32.1057 111.167 41.0276H94.6135V43.3161C94.6135 47.1505 95.1027 50.046 96.081 52.0024C97.0594 53.9589 98.7625 54.9372 101.187 54.9372C105.725 54.9372 108.699 52.513 110.11 47.6575L111.167 47.8324C110.424 50.6493 109.081 52.8414 107.146 54.4052C105.211 55.9689 102.305 56.7544 98.4305 56.7544C93.3817 56.7544 89.5969 55.4548 87.0725 52.8521L87.069 52.8557ZM94.6707 39.8566H100.716V36.9826C100.716 33.8122 100.53 31.6523 100.159 30.4955C99.7873 29.3423 99.0446 28.764 97.927 28.764C96.8094 28.764 95.9918 29.3816 95.4598 30.6133C94.9313 31.845 94.6671 33.9693 94.6671 36.9826V39.8566H94.6707Z" fill="white"/>
<path d="M114.042 56.7581V46.251H114.745C115.763 49.6534 117.13 52.0418 118.855 53.4128C120.576 54.7838 122.729 55.4657 125.31 55.4657C129.302 55.4657 131.298 54.1947 131.298 51.6491C131.298 50.5531 130.809 49.7319 129.83 49.1821C128.306 48.3217 126.346 47.6576 123.96 47.1864C121.297 46.483 119.069 45.5441 117.269 44.3695C115.116 42.9592 114.042 40.7314 114.042 37.6789C114.042 34.6264 114.981 32.1915 116.859 30.3707C118.737 28.5499 121.24 27.6431 124.371 27.6431C126.288 27.6431 128.263 28.0929 130.298 28.9926C131.041 29.3068 131.609 29.4639 132.001 29.4639C132.394 29.4639 132.726 29.3282 133.001 29.0533C133.272 28.7784 133.608 28.2714 133.997 27.5288H134.644V36.5079H133.94C131.944 31.4203 128.852 28.8783 124.667 28.8783C122.829 28.8783 121.458 29.1997 120.558 29.8459C119.658 30.4921 119.208 31.3025 119.208 32.2808C119.208 32.8663 119.344 33.3268 119.619 33.6588C119.894 33.9909 120.108 34.2372 120.265 34.3943C120.422 34.5514 120.676 34.7156 121.029 34.8941C121.383 35.0691 121.675 35.2083 121.911 35.3047C122.147 35.4011 122.507 35.5296 122.996 35.6867C123.486 35.8438 123.846 35.9402 124.082 35.9795C126.742 36.6471 128.659 37.2219 129.834 37.711C131.009 38.2002 132.123 38.7964 133.18 39.4997C135.333 40.9885 136.407 43.3841 136.407 46.6901C136.407 49.9961 135.429 52.5024 133.472 54.2018C131.516 55.9048 128.834 56.7545 125.432 56.7545C123.004 56.7545 120.658 56.1868 118.387 55.0515C117.919 54.7373 117.544 54.5838 117.273 54.5838C116.412 54.5838 115.57 55.3086 114.748 56.7545H114.045L114.042 56.7581Z" fill="white"/>
<path d="M140.513 47.7789V29.2924H137.285V28.2356H140.513V20.6632L151.432 17.9641V28.2356H159.062V29.2924H151.432V49.0713C151.432 50.91 151.617 52.2595 151.989 53.1199C152.36 53.9803 153.131 54.4123 154.306 54.4123C155.481 54.4123 156.509 53.8268 157.387 52.6522C158.269 51.4776 158.844 49.8746 159.119 47.8396L160.119 47.9574C159.805 50.6565 158.944 52.7986 157.537 54.3838C156.127 55.9689 153.799 56.7615 150.553 56.7615C147.308 56.7615 144.819 56.1153 143.098 54.8229C141.377 53.5305 140.516 51.1849 140.516 47.7789H140.513Z" fill="white"/>
<path d="M183.538 53.0021C181.032 50.4994 179.782 46.9078 179.782 42.2308C179.782 37.5538 181.121 33.955 183.803 31.4309C186.484 28.9068 190.251 27.6465 195.103 27.6465C199.956 27.6465 203.576 28.8104 205.962 31.1381C208.347 33.4659 209.543 37.0183 209.543 41.7917C209.543 51.7704 204.573 56.758 194.632 56.758C189.74 56.758 186.041 55.5048 183.538 53.0021ZM198.271 44.6085V39.621C198.271 35.8258 198.063 33.0589 197.653 31.3167C197.242 29.578 196.292 28.7068 194.807 28.7068C193.947 28.7068 193.25 28.9532 192.722 29.4387C192.193 29.9278 191.811 30.7383 191.576 31.8736C191.222 33.6337 191.047 36.315 191.047 39.9137V44.4907C191.047 48.7571 191.172 51.3205 191.429 52.1774C191.683 53.0378 191.947 53.7447 192.222 54.291C192.65 55.2299 193.493 55.7012 194.746 55.7012C196.271 55.7012 197.271 54.8193 197.739 53.0592C198.092 51.8061 198.267 48.9892 198.267 44.6085H198.271Z" fill="white"/>
<path d="M211.303 28.2319H225.45V33.6301C226.075 31.8307 227.035 30.3812 228.328 29.2851C229.617 28.1891 231.573 27.6428 234.198 27.6428C240.264 27.6428 243.295 30.9096 243.295 37.443V55.1084H246.584V56.1652H229.974V55.1084H232.38V36.0328C232.38 33.6836 232.223 32.1698 231.909 31.4844C231.595 30.7989 231.027 30.4561 230.206 30.4561C228.952 30.4561 227.849 31.2773 226.889 32.9232C225.928 34.5654 225.45 36.5612 225.45 38.9104V55.1084H227.974V56.1652H211.303V55.1084H214.531V29.2887H211.303V28.2319Z" fill="white"/>
<path d="M247.458 28.2319H261.605V33.6301C262.23 31.8307 263.19 30.3812 264.483 29.2851C265.772 28.1891 267.729 27.6428 270.353 27.6428C276.419 27.6428 279.451 30.9096 279.451 37.443V55.1084H282.739V56.1652H266.129V55.1084H268.535V36.0328C268.535 33.6836 268.378 32.1698 268.064 31.4844C267.75 30.7989 267.182 30.4561 266.361 30.4561C265.108 30.4561 264.004 31.2773 263.044 32.9232C262.083 34.5654 261.605 36.5612 261.605 38.9104V55.1084H264.129V56.1652H247.458V55.1084H250.686V29.2887H247.458V28.2319Z" fill="white"/>
<path d="M287.577 52.8557C285.052 50.253 283.792 46.6328 283.792 41.9987C283.792 37.3646 285.209 33.8122 288.048 31.3452C290.883 28.8782 294.493 27.6465 298.878 27.6465C307.761 27.6465 312.028 32.1057 311.674 41.0276H295.121V43.3161C295.121 47.1505 295.61 50.046 296.589 52.0024C297.567 53.9589 299.27 54.9372 301.695 54.9372C306.233 54.9372 309.207 52.513 310.618 47.6575L311.674 47.8324C310.932 50.6493 309.589 52.8414 307.654 54.4052C305.719 55.9689 302.812 56.7544 298.938 56.7544C293.889 56.7544 290.105 55.4548 287.58 52.8521L287.577 52.8557ZM295.178 39.8566H301.223V36.9826C301.223 33.8122 301.038 31.6523 300.666 30.4955C300.295 29.3423 299.552 28.764 298.435 28.764C297.317 28.764 296.5 29.3816 295.971 30.6133C295.443 31.845 295.178 33.9693 295.178 36.9826V39.8566Z" fill="white"/>
<path d="M333.391 29.8779C331.941 29.8779 330.67 30.8168 329.574 32.6948C328.478 34.5727 327.932 36.8041 327.932 39.3853V55.1156H332.099V56.1724H313.785V55.1156H317.013V29.2888H313.785V28.232H327.932V33.8658C328.439 31.87 329.417 30.3348 330.867 29.2602C332.313 28.1856 333.959 27.6465 335.798 27.6465C337.636 27.6465 339.132 28.1642 340.286 29.2031C341.439 30.2385 342.018 31.7058 342.018 33.6052C342.018 35.5045 341.585 36.9611 340.725 37.9787C339.864 38.9962 338.543 39.5067 336.762 39.5067C334.98 39.5067 333.67 38.9212 332.83 37.7466C331.988 36.572 331.881 34.9476 332.509 32.8768H334.623C335.601 30.8811 335.191 29.885 333.391 29.885V29.8779Z" fill="white"/>
<path d="M159.205 5.70039C162.183 3.47972 166.439 2.36938 171.966 2.36938C177.493 2.36938 181.76 3.42974 184.766 5.55044C187.769 7.67114 189.272 10.8022 189.272 14.9401C189.272 17.6677 188.601 20.0776 187.266 22.1733C185.927 24.269 184.07 26.404 181.699 28.5711L170.263 38.7177V43.109H168.37V27.2038C168.37 26.3469 168.649 25.64 169.202 25.083L173.898 20.3133C175.362 18.8495 176.372 17.4749 176.929 16.1861C177.483 14.8972 177.761 13.2192 177.761 11.1485C177.761 6.2502 175.49 3.80104 170.945 3.80104C168.774 3.80104 167.181 4.38298 166.175 5.5433C165.164 6.70362 164.661 7.81395 164.661 8.8743C164.661 9.93466 164.811 10.8701 165.114 11.6769H167.539C167.942 12.7373 168.146 14.0118 168.146 15.5006C168.146 16.9894 167.514 18.2782 166.253 19.3636C164.989 20.4489 163.325 20.9916 161.254 20.9916C159.183 20.9916 157.58 20.324 156.445 18.9851C155.309 17.6463 154.742 15.9683 154.742 13.9476C154.742 10.6665 156.231 7.91392 159.208 5.69325L159.205 5.70039ZM169.163 56.9721C167.271 56.9721 165.857 56.4295 164.921 55.3441C163.986 54.2588 163.522 52.895 163.522 51.2562C163.522 49.6175 164.025 48.2537 165.036 47.1684C166.046 46.083 167.431 45.5403 169.202 45.5403C170.973 45.5403 172.384 46.008 173.444 46.9399C174.505 47.8753 175.033 49.2498 175.033 51.067C175.033 52.8843 174.526 54.3231 173.519 55.3834C172.509 56.4438 171.059 56.9721 169.163 56.9721Z" fill="white"/>
</svg>
